<svg width="462" height="588" viewBox="0 0 462 588" fill="none" xmlns="http://www.w3.org/2000/svg">
<rect width="26.4618" height="4.7339" transform="matrix(0.757375 0.65298 0.65298 -0.757375 161.185 47.5853)" fill="#6070FF"/>
<ellipse cx="166.304" cy="59.2109" rx="5.5" ry="5" transform="rotate(52.9708 166.304 59.2109)" fill="#CBCDFF"/>
<rect x="225.824" y="549" width="68.0631" height="12.1762" transform="rotate(23.34 225.824 549)" fill="#EBEBFF"/>
<circle cx="281" cy="563.096" r="10" fill="#6070FF"/>
<path d="M368.907 465.499C370.426 463.689 371.498 461.547 372.036 459.246C372.573 456.945 372.562 454.549 372.001 452.254C371.441 449.958 370.348 447.826 368.81 446.032C367.273 444.237 365.335 442.829 363.152 441.923C360.97 441.017 358.604 440.637 356.248 440.815C353.891 440.993 351.61 441.723 349.588 442.947C347.566 444.171 345.861 445.853 344.611 447.858C343.36 449.864 342.6 452.135 342.39 454.489L348.841 455.063C348.96 453.722 349.393 452.428 350.106 451.285C350.818 450.143 351.79 449.184 352.941 448.487C354.093 447.79 355.393 447.374 356.735 447.273C358.078 447.171 359.425 447.388 360.669 447.904C361.912 448.42 363.016 449.222 363.892 450.244C364.768 451.267 365.391 452.481 365.71 453.789C366.029 455.097 366.036 456.462 365.73 457.773C365.423 459.084 364.813 460.304 363.947 461.335L368.907 465.499Z" fill="#EBEBFF"/>
<path d="M352.497 429C352.278 432.194 353.337 435.344 355.441 437.757C357.545 440.17 360.521 441.649 363.715 441.867C366.909 442.086 370.059 441.027 372.472 438.923C374.885 436.82 376.364 433.843 376.583 430.649L352.497 429Z" fill="#6070FF"/>
<rect y="37.4868" width="51.9898" height="9.30073" transform="rotate(-46.1415 0 37.4868)" fill="#EBEBFF"/>
<path d="M22.1905 24.6419C20.1856 29.3377 20.1282 34.6376 22.031 39.3757C23.9337 44.1137 27.6408 47.9019 32.3365 49.9068C37.0323 51.9117 42.3322 51.969 47.0703 50.0663C51.8084 48.1635 55.5965 44.4565 57.6014 39.7607L22.1905 24.6419Z" fill="#6070FF"/>
<circle cx="255.5" cy="13.5" r="7" fill="white" stroke="#CBCDFF"/>
<circle cx="337.5" cy="216.5" r="5" fill="white" stroke="#CBCDFF"/>
<circle cx="94.5" cy="548.5" r="7" fill="white" stroke="#CBCDFF"/>
<path d="M455.241 74.9701C451.195 67.7876 445.514 61.659 438.659 57.0803C431.803 52.5017 423.966 49.6018 415.782 48.6154C407.597 47.6291 399.295 48.584 391.548 51.4028C383.802 54.2216 376.827 58.8252 371.191 64.8407C365.554 70.8562 361.413 78.1145 359.103 86.0281C356.793 93.9416 356.379 102.288 357.895 110.391C359.411 118.494 362.813 126.127 367.828 132.67C372.842 139.214 379.326 144.485 386.756 148.056L396.543 127.695C392.31 125.661 388.616 122.658 385.759 118.93C382.903 115.202 380.964 110.854 380.101 106.238C379.237 101.621 379.473 96.8662 380.789 92.3579C382.105 87.8496 384.464 83.7145 387.675 80.2874C390.886 76.8604 394.86 74.2378 399.273 72.6319C403.686 71.026 408.416 70.482 413.079 71.044C417.741 71.6059 422.206 73.258 426.112 75.8664C430.017 78.4748 433.254 81.9663 435.559 86.0582L455.241 74.9701Z" fill="#6070FF"/>
<rect x="328" y="61.79" width="95.5804" height="22.021" transform="rotate(-30 328 61.79)" fill="#EBEBFF"/>
</svg>
